:SAMPLES-PER-SECOND 30
:FULLY-SPECIFIED
:DEGREES
38
root  24.06711128 39.35644495 23.21688885 -3.181809902 -2.133239985 -4.258629799
lowerback  8.49905014 3.468060017 2.330389977
upperback  0.7616429925 4.94535017 2.609400034
thorax  -4.000420094 2.432450056 0.8164790273
lowerneck  -16.20619965 -6.616429806 -15.57870007
upperneck  27.06850052 -7.655320168 9.194410324
head  12.69950008 -3.879509926 4.946790218
lclavicle  0 -5.34481991e-014 2.981770104e-014
lhumerus  -50.41260147 20.29649925 73.72229767
lradius  -3.207339651e-031 -1.477097288e-031 24.72780037
lwrist  -1.059337512e-030 -3.531125038e-031 -6.13932991
lhand  -7.245548447e-031 -12.91520023 31.05060005
lfingers  90 7.125020027 -90
lthumb  93.64480782 15.19334599 76.33873295
rclavicle  0 -5.34481991e-014 2.981770104e-014
rhumerus  -26.02840042 -5.051519871 -80.44300079
rradius  2.83722445e-031 2.102142112e-031 36.53530121
rwrist  7.062250077e-031 -0 2.376679897
rhand  -0 -19.30920029 11.31379986
rfingers  -90 -7.125020027 -90
rthumb  -86.52722063 -26.23702735 -82.18377154
rfemur  16.66629982 4.333960056 28.29269981
rtibia  -0 0 27.36289978
rfoot  -4.711382407e-032 -5.489419937 -0.1858049929
rtoes  7.303303712 18.66989716 -111.8192204
lfemur  -22.14900017 3.648159981 -16.1420002
ltibia  -0 0 26.69260025
lfoot  4.414276076e-032 -0.7416200042 -2.829109907
ltoes  -5.859462401 -19.15610826 -107.3667827
39
root  24.1082229 39.37311248 23.62488874 -3.388770103 -1.999860048 -3.788079977
lowerback  8.548210144 3.453350067 1.923840046
upperback  0.7687590122 4.881539822 2.43114996
thorax  -4.038209915 2.406009912 0.8619300127
lowerneck  -16.0522995 -6.60491991 -15.6953001
upperneck  27.06920052 -7.688670158 9.385080338
head  12.68719959 -3.887520075 5.039869785
lclavicle  0 -5.34481991e-014 2.981770104e-014
lhumerus  -50.39799881 20.85630035 73.07559967
lradius  -3.215633474e-031 -1.458953529e-031 24.40410042
lwrist  -1.059337512e-030 -0 -6.598680019
lhand  -7.230072223e-031 -12.36900043 31.60390091
lfingers  90 7.125020027 -90
lthumb  93.91943986 15.66183635 75.75934252
rclavicle  0 -5.34481991e-014 2.981770104e-014
rhumerus  -26.36650085 -5.371250153 -80.54319763
rradius  2.846581344e-031 2.08945416e-031 36.27949905
rwrist  3.531125038e-031 -0 2.736670017
rhand  -0 -19.40410042 11.0880003
rfingers  -90 -7.125020027 -90
rthumb  -86.60644645 -26.01580446 -82.3007163
rfemur  15.50529957 3.911649942 27.52540016
rtibia  -0 0 30.40089989
rfoot  -4.698807222e-032 -3.553040028 0.02615799941
rtoes  7.467202606 18.60691198 -112.3320511
lfemur  -21.38290024 4.048250198 -16.78370094
ltibia  -0 0 26.81220055
lfoot  4.414537484e-032 -0.9689000249 -3.445329905
ltoes  -6.286162215 -19.02494093 -108.6713781
40
root  24.17066679 39.39644521 24.03955535 -3.578190088 -1.735430002 -2.90199995
lowerback  8.623270035 3.403709888 1.181220055
upperback  0.6646419764 4.737440109 2.128659964
thorax  -4.221549988 2.343630075 0.9697070122
lowerneck  -15.57110023 -6.585340023 -15.79150009
upperneck  26.9817009 -7.737150192 9.479940414
head  12.56879997 -3.918800116 5.089759827
lclavicle  0 -5.34481991e-014 2.981770104e-014
lhumerus  -50.50419998 21.16309929 72.60720062
lradius  -3.219834286e-031 -1.449658998e-031 24.23859978
lwrist  -1.412450015e-030 -0 -6.71420002
lhand  -7.238681734e-031 -12.67599964 30.97319984
lfingers  90 7.125020027 -90
lthumb  93.68423042 15.0887761 76.1063922
rclavicle  0 -5.34481991e-014 2.981770104e-014
rhumerus  -26.85000038 -5.483230114 -80.6364975
rradius  2.856819898e-031 2.075433475e-031 35.99779892
rwrist  1.412450015e-030 -3.531125038e-031 2.842839956
rhand  -0 -19.61219978 11.75459957
rfingers  -90 -7.125020027 -90
rthumb  -86.6082277 -26.68198173 -82.4812046
rfemur  14.2276001 3.200289965 26.08040047
rtibia  -0 0 33.39619827
rfoot  -4.966309331e-032 -0.9374610186 0.4481109977
rtoes  7.513709905 18.58873957 -112.477877
lfemur  -20.60899925 4.307219982 -17.9423008
ltibia  -0 0 26.9836998
lfoot  4.414967017e-032 -1.255980015 -3.844189882
ltoes  -6.929541547 -18.80745266 -110.6558033
41
root  24.23933284 39.42355659 24.47733391 -3.836270094 -1.4921 -2.037480116
lowerback  8.633159637 3.335809946 0.4736459851
upperback  0.6508949995 4.56675005 1.83901
thorax  -4.270229816 2.269439936 1.082980037
lowerneck  -15.38140011 -6.57652998 -15.85449982
upperneck  27.07670021 -7.772960186 9.570289612
head  12.58059978 -3.93769002 5.136859894
lclavicle  0 -5.34481991e-014 2.981770104e-014
lhumerus  -50.59019852 21.38809967 72.17749786
lradius  -3.222679502e-031 -1.443322856e-031 24.12590027
lwrist  -7.062250077e-031 -3.531125038e-031 -6.825069904
lhand  -7.245655737e-031 -12.91889954 31.86529922
lfingers  90 7.125020027 -90
lthumb  93.84397777 15.98534288 76.28866692
rclavicle  0 -5.34481991e-014 2.981770104e-014
rhumerus  -27.33189964 -5.664340019 -80.75869751
rradius  2.863538653e-031 2.066153532e-031 35.81190109
rwrist  1.059337512e-030 -0 3.040359974
rhand  -0 -19.8416996 13.06400013
rfingers  -90 -7.125020027 -90
rthumb  -86.5327631 -27.98677988 -82.6430582
rfemur  12.98120022 2.537750006 24.62030029
rtibia  -0 0 36.30369949
rfoot  -4.970513848e-032 2.536319971 0.6975190043
rtoes  7.36455797 18.64654966 -112.0106863
lfemur  -19.76530075 4.620969772 -19.06209946
ltibia  -0 0 27.16519928
lfoot  4.415289118e-032 -1.434010029 -4.349559784
ltoes  -7.33787755 -18.65674719 -111.9272614
42
root  24.29311107 39.44333294 24.89088915 -4.102970123 -1.156800032 -1.632259965
lowerback  8.610369682 3.191030025 0.1783750057
upperback  0.8105509877 4.335120201 1.682090044
thorax  -4.096129894 2.158930063 1.120300055
lowerneck  -15.63780022 -6.582079887 -15.81040001
upperneck  27.2329998 -7.767980099 9.591170311
head  12.69480038 -3.924959898 5.140759945
lclavicle  0 -5.34481991e-014 2.981770104e-014
lhumerus  -50.46149826 21.55430031 71.96340179
lradius  -3.218965877e-031 -1.451586277e-031 24.27289963
lwrist  -3.531125038e-031 -0 -6.753170013
lhand  -7.249881588e-031 -13.06369972 31.4571991
lfingers  90 7.125020027 -90
lthumb  93.70686327 15.60666935 76.4600289
rclavicle  0 -5.34481991e-014 2.981770104e-014
rhumerus  -27.4246006 -5.843140125 -80.94619751
rradius  2.876188887e-031 2.048507145e-031 35.45959854
rwrist  1.059337512e-030 -3.531125038e-031 3.231559992
rhand  -0 -19.77619934 13.11050034
rfingers  -90 -7.125020027 -90
rthumb  -86.49215895 -28.03093243 -82.56830462
rfemur  11.68500042 1.932559967 23.7682991
rtibia  -0 0 39.06539917
rfoot  -4.997202995e-032 6.442590237 0.6729959846
rtoes  7.178171606 18.71688441 -111.4287985
lfemur  -19.00559998 4.993780136 -19.6473999
ltibia  -0 0 27.41589928
lfoot  4.415860885e-032 -1.70480001 -5.187469959
ltoes  -7.499903197 -18.59414835 -112.434571
43
root  24.34955507 39.45555499 25.26822128 -4.28674984 -0.5329170227 -1.096779943
lowerback  8.676340103 2.983360052 -0.180133
upperback  0.9105719924 4.013440132 1.452939987
thorax  -4.029540062 2.003410101 1.12214005
lowerneck  -15.9229002 -6.644000053 -15.77250004
upperneck  27.33679962 -7.822110176 9.568249702
head  12.80230045 -3.942470074 5.115180016
lclavicle  0 -5.34481991e-014 2.981770104e-014
lhumerus  -50.19660187 21.74970055 71.7256012
lradius  -3.22043367e-031 -1.448326972e-031 24.21489906
lwrist  -3.531125038e-031 -0 -6.689599991
lhand  -7.244887909e-031 -12.89239979 31.34140015
lfingers  90 7.125020027 -90
lthumb  93.72175542 15.47303259 76.29730843
rclavicle  0 -5.34481991e-014 2.981770104e-014
rhumerus  -27.59799957 -6.104740143 -81.11440277
rradius  2.884463498e-031 2.036839308e-031 35.22750092
rwrist  7.062250077e-031 -3.531125038e-031 3.490180016
rhand  3.747967144e-031 -19.58519936 12.54759979
rfingers  -90 -7.125020027 -90
rthumb  -86.47764725 -27.46741165 -82.39864225
rfemur  10.26179981 1.047260046 22.68460083
rtibia  -0 0 41.71509933
rfoot  -5.604715687e-032 10.12779999 0.9244670272
rtoes  7.005342646 18.78023176 -110.8910904
lfemur  -18.36050034 5.204030037 -20.45409966
ltibia  -0 0 27.6942997
lfoot  4.41709204e-032 -2.176209927 -6.186419964
ltoes  -8.075882734 -18.35838738 -114.2519057
